#!OML:ASF F:\VICON\USERDATA\INSTALL\rory3\rory3.ASF
:FULLY-SPECIFIED
:DEGREES
680
root 1.35377 18.5757 6.6105 -1.87276 21.0234 -6.75533
lowerback 5.71045 5.7361 -1.41848
upperback 1.34048 7.50388 -2.88229
thorax -1.59063 3.75384 -2.68938
lowerneck -4.29674 -11.1397 -7.32163
upperneck -1.94515 -14.6532 11.6778
head 1.5353 -7.19964 4.09924
rclavicle -6.71892e-014 1.27222e-014
rhumerus 62.89 11.8733 -70.9893
rradius 46.7092
rwrist 30.5572
rhand -67.1827 329.015
rfingers 7.12502
rthumb -38.9591 -416.516
lclavicle -6.71892e-014 1.27222e-014
lhumerus -16.2557 -1.30341 73.317
lradius 49.3272
lwrist -2.7785
lhand -25.3474 16.6976
lfingers 7.12502
lthumb 1.17601 46.6741
rfemur -3.28056 9.19986 15.5967
rtibia 28.255
rfoot -12.1724 -35.1662
rtoes -4.55669
lfemur -13.1433 -9.0499 -6.94336
ltibia 32.8164
lfoot -16.6643 3.74269
ltoes -12.8945
681
root 1.34168 18.5752 6.61116 -1.88969 21.0602 -6.91653
lowerback 5.70396 5.68534 -1.32665
upperback 1.35162 7.44278 -2.8532
thorax -1.56993 3.72326 -2.70377
lowerneck -4.34297 -11.1634 -7.40019
upperneck -1.93006 -14.6822 11.7373
head 1.56044 -7.21139 4.12229
rclavicle -8.94531e-015 0
rhumerus 63.4799 12.8587 -69.5248
rradius 46.444
rwrist 31.129
rhand -66.4701 325.72
rfingers 7.12502
rthumb -38.2869 -420
lclavicle -8.94531e-015 0
lhumerus -16.3766 -1.21853 73.4055
lradius 49.3838
lwrist -2.65925
lhand -25.491 16.8745
lfingers 7.12502
lthumb 1.03735 46.8517
rfemur -3.37477 9.23998 15.7848
rtibia 28.3813
rfoot -12.0828 -35.1301
rtoes -4.8598
lfemur -13.2119 -9.06132 -6.71431
ltibia 32.7606
lfoot -16.5825 3.7178
ltoes -12.9769
682
root 1.32958 18.5773 6.61361 -1.93839 21.0112 -7.04189
lowerback 5.64537 5.64539 -1.2564
upperback 1.41992 7.39824 -2.83738
thorax -1.46186 3.70186 -2.71128
lowerneck -4.41851 -11.1908 -7.35073
upperneck -1.92943 -14.7153 11.6533
head 1.56511 -7.22658 4.08453
rclavicle -5.1684e-015 4.6118e-014
rhumerus 64.1827 13.7646 -68.2034
rradius 46.0753
rwrist 32.1669
rhand -66.4405 323.702
rfingers 7.12502
rthumb -38.2589 -422.026
lclavicle -5.1684e-015 4.6118e-014
lhumerus -16.3223 -1.02598 73.4681
lradius 49.259
lwrist -2.75517
lhand -25.4802 16.7885
lfingers 7.12502
lthumb 1.04782 46.7657
rfemur -3.48738 9.42733 15.9378
rtibia 28.4756
rfoot -11.7983 -35.3586
rtoes -5.29429
lfemur -13.183 -9.06402 -6.53315
ltibia 32.7402
lfoot -16.5683 3.71288
ltoes -12.7959
683
root 1.31765 18.5801 6.61325 -1.98269 20.9456 -7.08804
lowerback 5.63184 5.61398 -1.26542
upperback 1.4956 7.35911 -2.80952
thorax -1.38256 3.68297 -2.6688
lowerneck -4.48245 -11.2187 -7.36933
upperneck -1.95551 -14.7434 11.5372
head 1.56172 -7.24008 4.04918
rclavicle 4.73108e-014 9.54166e-015
rhumerus 64.9682 14.6417 -66.6392
rradius 45.6471
rwrist 33.2761
rhand -66.3354 327.306
rfingers 7.12502
rthumb -38.1597 -418.45
lclavicle 4.73108e-014 9.54166e-015
lhumerus -16.3131 -0.906807 73.568
lradius 49.1892
lwrist -2.75973
lhand -25.2548 16.2574
lfingers 7.12502
lthumb 1.26549 46.2333
rfemur -3.65856 9.61714 15.9827
rtibia 28.5707
rfoot -11.2354 -35.6385
rtoes -5.86949
lfemur -13.1532 -9.02588 -6.44727
ltibia 32.7523
lfoot -16.5647 3.70764
ltoes -12.6136
684
root 1.30305 18.5792 6.60807 -2.04296 20.8441 -7.25983
lowerback 5.71156 5.57973 -1.14148
upperback 1.5123 7.31929 -2.75826
thorax -1.40225 3.66274 -2.68884
lowerneck -4.56459 -11.2111 -7.48335
upperneck -1.94964 -14.7238 11.5439
head 1.58359 -7.22692 4.06374
rclavicle -3.81667e-014 1.59028e-015
rhumerus 65.7294 15.5213 -64.8253
rradius 45.4335
rwrist 34.1686
rhand -65.9827 330.325
rfingers 7.12502
rthumb -37.8267 -415.521
lclavicle -3.81667e-014 1.59028e-015
lhumerus -16.3449 -0.830366 73.6854
lradius 49.1186
lwrist -2.78416
lhand -25.2707 16.1703
lfingers 7.12502
lthumb 1.25017 46.1464
rfemur -3.82572 9.74213 16.1602
rtibia 28.6832
rfoot -10.6803 -35.6314
rtoes -6.39297
lfemur -13.1751 -8.96474 -6.21935
ltibia 32.7567
lfoot -16.5523 3.77068
ltoes -12.9509
685
root 1.28918 18.5769 6.60596 -2.01682 20.7757 -7.30323
lowerback 5.72891 5.53652 -1.11429
upperback 1.50787 7.2626 -2.75883
thorax -1.41507 3.6343 -2.70274
lowerneck -4.64923 -11.23 -7.61147
upperneck -1.85462 -14.7481 11.6063
head 1.64194 -7.23343 4.09005
rclavicle -2.18663e-014 6.36111e-015
rhumerus 66.4756 16.3732 -63.0138
rradius 45.2974
rwrist 35.0227
rhand -65.8024 332.424
rfingers 7.12502
rthumb -37.6563 -413.468
lclavicle -2.18663e-014 6.36111e-015
lhumerus -16.3711 -0.686715 73.8071
lradius 49.0243
lwrist -2.86212
lhand -25.4679 16.5316
lfingers 7.12502
lthumb 1.05968 46.5087
rfemur -3.96087 9.77886 16.1902
rtibia 28.8026
rfoot -10.2475 -35.4177
rtoes -7.11082
lfemur -13.2145 -8.93216 -6.12845
ltibia 32.758
lfoot -16.5188 3.83481
ltoes -13.4112
